<svg id="Layer_1" data-name="Layer 1" xmlns="http://www.w3.org/2000/svg" viewBox="0 0 50 50"><defs><style>.cls-1{fill:#0072c6;}.cls-2,.cls-3{fill:#fff;}.cls-2{opacity:0.15;isolation:isolate;}.cls-4{fill:#7fba00;}.cls-5{fill:#b8d432;}.cls-6{fill:#a0a1a2;}</style></defs><title>product-vendor-microsoft-icon-sql-server</title><path class="cls-1" d="M0,6.79V42.9c0,3.75,8.39,6.79,18.74,6.79V6.79Z"/><path class="cls-1" d="M18.49,49.69h.26c10.35,0,18.74-3,18.74-6.79V6.79h-19Z"/><path class="cls-2" d="M18.49,49.69h.26c10.35,0,18.74-3,18.74-6.79V6.79h-19Z"/><path class="cls-3" d="M37.49,6.79c0,3.75-8.39,6.79-18.74,6.79S0,10.54,0,6.79,8.39,0,18.74,0,37.49,3,37.49,6.79"/><path class="cls-4" d="M33.65,6.4c0,2.47-6.68,4.48-14.91,4.48S3.83,8.87,3.83,6.4s6.68-4.48,14.91-4.48,14.91,2,14.91,4.48"/><path class="cls-5" d="M30.53,9.13c2-.76,3.12-1.7,3.12-2.73,0-2.47-6.68-4.48-14.91-4.48S3.83,3.92,3.83,6.4c0,1,1.17,2,3.13,2.73A34.81,34.81,0,0,1,18.74,7.39,34.83,34.83,0,0,1,30.53,9.13"/><path class="cls-3" d="M12.79,30.85a3.08,3.08,0,0,1-1.22,2.61,5.47,5.47,0,0,1-3.37.92,6.42,6.42,0,0,1-3.06-.66V31.08a4.72,4.72,0,0,0,3.13,1.21A2.13,2.13,0,0,0,9.54,32a1,1,0,0,0,.45-.87,1.22,1.22,0,0,0-.43-.93,8,8,0,0,0-1.76-1q-2.71-1.27-2.71-3.46a3.13,3.13,0,0,1,1.18-2.55,4.81,4.81,0,0,1,3.13-1,7.83,7.83,0,0,1,2.87.45v2.47a4.68,4.68,0,0,0-2.72-.83,2,2,0,0,0-1.21.33,1,1,0,0,0-.45.87,1.24,1.24,0,0,0,.36.92,5.8,5.8,0,0,0,1.47.89,7.29,7.29,0,0,1,2.36,1.59A3,3,0,0,1,12.79,30.85Z"/><path class="cls-3" d="M25.52,28.18a6.75,6.75,0,0,1-.95,3.62A5.06,5.06,0,0,1,21.9,34l3.43,3.18H21.86l-2.45-2.75a5.74,5.74,0,0,1-2.84-.83,5.22,5.22,0,0,1-2-2.12,6.52,6.52,0,0,1-.69-3,7,7,0,0,1,.75-3.28,5.3,5.3,0,0,1,2.1-2.22,6.13,6.13,0,0,1,3.1-.77,5.71,5.71,0,0,1,2.92.75,5.12,5.12,0,0,1,2,2.14A6.75,6.75,0,0,1,25.52,28.18Zm-2.8.15a4.63,4.63,0,0,0-.78-2.84,2.54,2.54,0,0,0-2.15-1,2.69,2.69,0,0,0-2.22,1,4.36,4.36,0,0,0-.83,2.79A4.35,4.35,0,0,0,17.55,31a2.62,2.62,0,0,0,2.17,1,2.66,2.66,0,0,0,2.19-1A4.25,4.25,0,0,0,22.71,28.33Z"/><polygon class="cls-3" points="34.52 34.18 27.47 34.18 27.47 22.35 30.14 22.35 30.14 32.02 34.52 32.02 34.52 34.18"/><path class="cls-6" d="M35.26,49.08l2.12.92.22-.26,1.7-2H41L43,50l2.13-.89,0-.35-.19-2.64,1.22-1.23,3,.17.9-2.17-.26-.23-2-1.74V39.17l2.2-2L49.13,35l-.34,0-2.59.19L45,33.93l.16-3L43,30l-.22.26-1.7,2H39.39l-2-2.25-2.13.88,0,.35.18,2.64-1.22,1.23-3-.17-.9,2.17.26.23,2,1.74v1.76l-2.21,2L31.28,45l.34,0,2.59-.19,1.21,1.25Zm.61-11A4.68,4.68,0,0,1,42,35.56a4.85,4.85,0,0,1,2.51,6.31,4.68,4.68,0,0,1-6.18,2.56,4.85,4.85,0,0,1-2.51-6.31"/></svg>